M48
; DRILL file {KiCad 7.0.2-0} date 2023 December 07, Thursday 17:55:19
; FORMAT={-:-/ absolute / inch / decimal}
; #@! TF.CreationDate,2023-12-07T17:55:19-05:00
; #@! TF.GenerationSoftware,Kicad,Pcbnew,7.0.2-0
; #@! TF.FileFunction,NonPlated,1,2,NPTH
FMAT,2
INCH
; #@! TA.AperFunction,NonPlated,NPTH,ComponentDrill
T1C0.0315
; #@! TA.AperFunction,NonPlated,NPTH,ComponentDrill
T2C0.0670
; #@! TA.AperFunction,NonPlated,NPTH,ComponentDrill
T3C0.1570
%
G90
G05
T1
X4.3125Y-1.9688
X4.313Y-1.9688
X4.5881Y-1.9688
X4.5886Y-1.9688
T2
X0.55Y-1.5
X0.55Y-2.25
X0.55Y-3.0
X0.95Y-1.5
X0.95Y-2.25
X0.95Y-3.0
X1.3Y-1.125
X1.3Y-1.875
X1.3Y-2.625
X1.7Y-1.125
X1.7Y-1.875
X1.7Y-2.625
X2.05Y-0.75
X2.05Y-1.5
X2.05Y-2.25
X2.45Y-0.75
X2.45Y-1.5
X2.45Y-2.25
X2.525Y-3.5656
X2.8Y-1.125
X2.8Y-1.875
X2.8Y-2.625
X2.925Y-3.5656
X3.2Y-1.125
X3.2Y-1.875
X3.2Y-2.625
X3.3188Y-3.5794
X3.55Y-1.125
X3.55Y-1.875
X3.55Y-2.625
X3.7172Y-3.6143
X3.95Y-1.125
X3.95Y-1.875
X3.95Y-2.625
X4.2643Y-3.525
X4.6107Y-3.725
T3
X0.75Y-1.5
X0.75Y-2.25
X0.75Y-3.0
X1.5Y-1.125
X1.5Y-1.875
X1.5Y-2.625
X2.25Y-0.75
X2.25Y-1.5
X2.25Y-2.25
X2.725Y-3.5656
X3.0Y-1.125
X3.0Y-1.875
X3.0Y-2.625
X3.518Y-3.5969
X3.75Y-1.125
X3.75Y-1.875
X3.75Y-2.625
X4.4375Y-3.625
T0
M30
