%TF.GenerationSoftware,KiCad,Pcbnew,7.0.2-0*%
%TF.CreationDate,2023-12-07T17:55:22-05:00*%
%TF.ProjectId,Flare,466c6172-652e-46b6-9963-61645f706362,rev?*%
%TF.SameCoordinates,Original*%
%TF.FileFunction,Soldermask,Bot*%
%TF.FilePolarity,Negative*%
%FSLAX46Y46*%
G04 Gerber Fmt 4.6, Leading zero omitted, Abs format (unit mm)*
G04 Created by KiCad (PCBNEW 7.0.2-0) date 2023-12-07 17:55:22*
%MOMM*%
%LPD*%
G01*
G04 APERTURE LIST*
G04 Aperture macros list*
%AMRotRect*
0 Rectangle, with rotation*
0 The origin of the aperture is its center*
0 $1 length*
0 $2 width*
0 $3 Rotation angle, in degrees counterclockwise*
0 Add horizontal line*
21,1,$1,$2,0,0,$3*%
G04 Aperture macros list end*
%ADD10C,1.651000*%
%ADD11R,1.651000X1.651000*%
%ADD12C,1.701800*%
%ADD13C,3.987800*%
%ADD14C,2.286000*%
%ADD15RotRect,1.651000X1.651000X330.000000*%
%ADD16RotRect,1.651000X1.651000X355.000000*%
%ADD17C,0.800000*%
%ADD18C,1.752600*%
%ADD19R,1.200000X2.500000*%
G04 APERTURE END LIST*
D10*
%TO.C,D3*%
X53340000Y-28575000D03*
D11*
X60960000Y-28575000D03*
%TD*%
D10*
%TO.C,D12*%
X34290000Y-71437500D03*
D11*
X41910000Y-71437500D03*
%TD*%
D10*
%TO.C,D10*%
X91440000Y-57150000D03*
D11*
X99060000Y-57150000D03*
%TD*%
D12*
%TO.C,MX13*%
X52070000Y-57150000D03*
D13*
X57150000Y-57150000D03*
D12*
X62230000Y-57150000D03*
D14*
X53340000Y-54610000D03*
X54610000Y-52070000D03*
X59690000Y-52070000D03*
X60960000Y-54610000D03*
%TD*%
D10*
%TO.C,D13*%
X53340000Y-61912500D03*
D11*
X60960000Y-61912500D03*
%TD*%
D10*
%TO.C,D2*%
X72390000Y-38100000D03*
D11*
X80010000Y-38100000D03*
%TD*%
D12*
%TO.C,MX14*%
X71120000Y-66675000D03*
D13*
X76200000Y-66675000D03*
D12*
X81280000Y-66675000D03*
D14*
X72390000Y-64135000D03*
X73660000Y-61595000D03*
X78740000Y-61595000D03*
X80010000Y-64135000D03*
%TD*%
D12*
%TO.C,MX6*%
X13970000Y-57150000D03*
D13*
X19050000Y-57150000D03*
D12*
X24130000Y-57150000D03*
D14*
X15240000Y-54610000D03*
X16510000Y-52070000D03*
X21590000Y-52070000D03*
X22860000Y-54610000D03*
%TD*%
D10*
%TO.C,D8*%
X53340000Y-47625000D03*
D11*
X60960000Y-47625000D03*
%TD*%
D10*
%TO.C,D14*%
X72390000Y-76200000D03*
D11*
X80010000Y-76200000D03*
%TD*%
D12*
%TO.C,MX11*%
X13970000Y-76200000D03*
D13*
X19050000Y-76200000D03*
D12*
X24130000Y-76200000D03*
D14*
X15240000Y-73660000D03*
X16510000Y-71120000D03*
X21590000Y-71120000D03*
X22860000Y-73660000D03*
%TD*%
D10*
%TO.C,D11*%
X15240000Y-80962500D03*
D11*
X22860000Y-80962500D03*
%TD*%
D10*
%TO.C,D7*%
X34290000Y-57150000D03*
D11*
X41910000Y-57150000D03*
%TD*%
D10*
%TO.C,D4*%
X34290000Y-38100000D03*
D11*
X41910000Y-38100000D03*
%TD*%
D10*
%TO.C,D18*%
X107031693Y-94932500D03*
D15*
X113630807Y-98742500D03*
%TD*%
D10*
%TO.C,D17*%
X85104498Y-95711687D03*
D16*
X92695502Y-96375813D03*
%TD*%
D12*
%TO.C,MX4*%
X33020000Y-28575000D03*
D13*
X38100000Y-28575000D03*
D12*
X43180000Y-28575000D03*
D14*
X34290000Y-26035000D03*
X35560000Y-23495000D03*
X40640000Y-23495000D03*
X41910000Y-26035000D03*
%TD*%
D10*
%TO.C,D6*%
X15240000Y-66675000D03*
D11*
X22860000Y-66675000D03*
%TD*%
D17*
%TO.C,U2*%
X116550000Y-50006250D03*
X109550000Y-50006250D03*
%TD*%
D18*
%TO.C,U1*%
X106652537Y-23956740D03*
X106652537Y-26496740D03*
X106652537Y-29036740D03*
X106652537Y-31576740D03*
X106652537Y-34116740D03*
X106652537Y-36656740D03*
X106652537Y-39196740D03*
X122817097Y-39196740D03*
X122817097Y-36656740D03*
X122817097Y-34116740D03*
X122817097Y-31576740D03*
X122817097Y-29036740D03*
X122817097Y-26496740D03*
X122817097Y-23956740D03*
%TD*%
D10*
%TO.C,D5*%
X15240000Y-47625000D03*
D11*
X22860000Y-47625000D03*
%TD*%
D10*
%TO.C,D15*%
X91440000Y-76200000D03*
D11*
X99060000Y-76200000D03*
%TD*%
D12*
%TO.C,MX15*%
X90170000Y-66675000D03*
D13*
X95250000Y-66675000D03*
D12*
X100330000Y-66675000D03*
D14*
X91440000Y-64135000D03*
X92710000Y-61595000D03*
X97790000Y-61595000D03*
X99060000Y-64135000D03*
%TD*%
D10*
%TO.C,D1*%
X91440000Y-38100000D03*
D11*
X99060000Y-38100000D03*
%TD*%
D10*
%TO.C,D16*%
X65246250Y-95250000D03*
D11*
X72866250Y-95250000D03*
%TD*%
D12*
%TO.C,MX5*%
X13970000Y-38100000D03*
D13*
X19050000Y-38100000D03*
D12*
X24130000Y-38100000D03*
D14*
X15240000Y-35560000D03*
X16510000Y-33020000D03*
X21590000Y-33020000D03*
X22860000Y-35560000D03*
%TD*%
D12*
%TO.C,MX18*%
X108313091Y-89535000D03*
D13*
X112712500Y-92075000D03*
D12*
X117111909Y-94615000D03*
D14*
X110682943Y-87970295D03*
X113052795Y-86405591D03*
X117452205Y-88945591D03*
X117282057Y-91780295D03*
%TD*%
D12*
%TO.C,MX1*%
X90170000Y-28575000D03*
D13*
X95250000Y-28575000D03*
D12*
X100330000Y-28575000D03*
D14*
X91440000Y-26035000D03*
X92710000Y-23495000D03*
X97790000Y-23495000D03*
X99060000Y-26035000D03*
%TD*%
D12*
%TO.C,MX10*%
X90170000Y-47625000D03*
D13*
X95250000Y-47625000D03*
D12*
X100330000Y-47625000D03*
D14*
X91440000Y-45085000D03*
X92710000Y-42545000D03*
X97790000Y-42545000D03*
X99060000Y-45085000D03*
%TD*%
D12*
%TO.C,MX16*%
X64135000Y-90566875D03*
D13*
X69215000Y-90566875D03*
D12*
X74295000Y-90566875D03*
D14*
X65405000Y-88026875D03*
X66675000Y-85486875D03*
X71755000Y-85486875D03*
X73025000Y-88026875D03*
%TD*%
D12*
%TO.C,MX2*%
X71120000Y-28575000D03*
D13*
X76200000Y-28575000D03*
D12*
X81280000Y-28575000D03*
D14*
X72390000Y-26035000D03*
X73660000Y-23495000D03*
X78740000Y-23495000D03*
X80010000Y-26035000D03*
%TD*%
D10*
%TO.C,D9*%
X72390000Y-57150000D03*
D11*
X80010000Y-57150000D03*
%TD*%
D12*
%TO.C,MX9*%
X71120000Y-47625000D03*
D13*
X76200000Y-47625000D03*
D12*
X81280000Y-47625000D03*
D14*
X72390000Y-45085000D03*
X73660000Y-42545000D03*
X78740000Y-42545000D03*
X80010000Y-45085000D03*
%TD*%
D12*
%TO.C,MX12*%
X33020000Y-66675000D03*
D13*
X38100000Y-66675000D03*
D12*
X43180000Y-66675000D03*
D14*
X34290000Y-64135000D03*
X35560000Y-61595000D03*
X40640000Y-61595000D03*
X41910000Y-64135000D03*
%TD*%
D12*
%TO.C,MX7*%
X33020000Y-47625000D03*
D13*
X38100000Y-47625000D03*
D12*
X43180000Y-47625000D03*
D14*
X34290000Y-45085000D03*
X35560000Y-42545000D03*
X40640000Y-42545000D03*
X41910000Y-45085000D03*
%TD*%
D12*
%TO.C,MX8*%
X52070000Y-38100000D03*
D13*
X57150000Y-38100000D03*
D12*
X62230000Y-38100000D03*
D14*
X53340000Y-35560000D03*
X54610000Y-33020000D03*
X59690000Y-33020000D03*
X60960000Y-35560000D03*
%TD*%
D12*
%TO.C,MX17*%
X84296250Y-90917874D03*
D13*
X89356919Y-91360625D03*
D12*
X94417588Y-91803376D03*
D14*
X85782793Y-88498227D03*
X87269336Y-86078580D03*
X92330005Y-86521332D03*
X93373796Y-89162354D03*
%TD*%
D12*
%TO.C,MX3*%
X52070000Y-19050000D03*
D13*
X57150000Y-19050000D03*
D12*
X62230000Y-19050000D03*
D14*
X53340000Y-16510000D03*
X54610000Y-13970000D03*
X59690000Y-13970000D03*
X60960000Y-16510000D03*
%TD*%
D17*
%TO.C,U3*%
X109537500Y-50006250D03*
X116537500Y-50006250D03*
D19*
X106837500Y-53256250D03*
X107937500Y-46756250D03*
X111937500Y-46756250D03*
X114937500Y-46756250D03*
%TD*%
M02*
