M48
; DRILL file {KiCad 7.0.2-0} date 2023 December 07, Thursday 17:55:19
; FORMAT={-:-/ absolute / inch / decimal}
; #@! TF.CreationDate,2023-12-07T17:55:19-05:00
; #@! TF.GenerationSoftware,Kicad,Pcbnew,7.0.2-0
; #@! TF.FileFunction,Plated,1,2,PTH
FMAT,2
INCH
; #@! TA.AperFunction,Plated,PTH,ViaDrill
T1C0.0157
; #@! TA.AperFunction,Plated,PTH,ComponentDrill
T2C0.0390
; #@! TA.AperFunction,Plated,PTH,ComponentDrill
T3C0.0430
; #@! TA.AperFunction,Plated,PTH,ComponentDrill
T4C0.0590
%
G90
G05
T1
X3.3438Y-3.0312
X3.3438Y-3.1535
X3.383Y-3.1569
X3.3831Y-3.0312
X3.4225Y-3.0312
X3.4225Y-3.1556
X4.1875Y-2.0
X4.2812Y-1.7188
X4.4375Y-1.75
X4.5625Y-1.75
T2
X0.6Y-1.875
X0.6Y-2.625
X0.6Y-3.1875
X0.9Y-1.875
X0.9Y-2.625
X0.9Y-3.1875
X1.35Y-1.5
X1.35Y-2.25
X1.35Y-2.8125
X1.65Y-1.5
X1.65Y-2.25
X1.65Y-2.8125
X2.1Y-1.125
X2.1Y-1.875
X2.1Y-2.4375
X2.4Y-1.125
X2.4Y-1.875
X2.4Y-2.4375
X2.5688Y-3.75
X2.85Y-1.5
X2.85Y-2.25
X2.85Y-3.0
X2.8687Y-3.75
X3.15Y-1.5
X3.15Y-2.25
X3.15Y-3.0
X3.3506Y-3.7682
X3.6Y-1.5
X3.6Y-2.25
X3.6Y-3.0
X3.6494Y-3.7943
X3.9Y-1.5
X3.9Y-2.25
X3.9Y-3.0
X4.2138Y-3.7375
X4.4737Y-3.8875
T3
X4.1989Y-0.9432
X4.1989Y-1.0432
X4.1989Y-1.1432
X4.1989Y-1.2432
X4.1989Y-1.3432
X4.1989Y-1.4432
X4.1989Y-1.5432
X4.8353Y-0.9432
X4.8353Y-1.0432
X4.8353Y-1.1432
X4.8353Y-1.2432
X4.8353Y-1.3432
X4.8353Y-1.4432
X4.8353Y-1.5432
T4
X0.6Y-1.4
X0.6Y-2.15
X0.6Y-2.9
X0.65Y-1.3
X0.65Y-2.05
X0.65Y-2.8
X0.85Y-1.3
X0.85Y-2.05
X0.85Y-2.8
X0.9Y-1.4
X0.9Y-2.15
X0.9Y-2.9
X1.35Y-1.025
X1.35Y-1.775
X1.35Y-2.525
X1.4Y-0.925
X1.4Y-1.675
X1.4Y-2.425
X1.6Y-0.925
X1.6Y-1.675
X1.6Y-2.425
X1.65Y-1.025
X1.65Y-1.775
X1.65Y-2.525
X2.1Y-0.65
X2.1Y-1.4
X2.1Y-2.15
X2.15Y-0.55
X2.15Y-1.3
X2.15Y-2.05
X2.35Y-0.55
X2.35Y-1.3
X2.35Y-2.05
X2.4Y-0.65
X2.4Y-1.4
X2.4Y-2.15
X2.575Y-3.4656
X2.625Y-3.3656
X2.825Y-3.3656
X2.85Y-1.025
X2.85Y-1.775
X2.85Y-2.525
X2.875Y-3.4656
X2.9Y-0.925
X2.9Y-1.675
X2.9Y-2.425
X3.1Y-0.925
X3.1Y-1.675
X3.1Y-2.425
X3.15Y-1.025
X3.15Y-1.775
X3.15Y-2.525
X3.3773Y-3.4842
X3.4358Y-3.3889
X3.6Y-1.025
X3.6Y-1.775
X3.6Y-2.525
X3.635Y-3.4064
X3.65Y-0.925
X3.65Y-1.675
X3.65Y-2.425
X3.6761Y-3.5103
X3.85Y-0.925
X3.85Y-1.675
X3.85Y-2.425
X3.9Y-1.025
X3.9Y-1.775
X3.9Y-2.525
X4.3576Y-3.4634
X4.4509Y-3.4018
X4.6174Y-3.6134
X4.6241Y-3.5018
T0
M30
